<svg height="512" viewBox="0 0 256 256" width="512" xmlns="http://www.w3.org/2000/svg"><g id="Layer_55"><g><g><g><path d="m227.5 48.5h-199c-9.374 0-17 7.626-17 17v157c0 9.374 7.626 17 17 17h199c9.374 0 17-7.626 17-17v-157c0-9.374-7.626-17-17-17z" fill="#edf4fc"/></g></g><g><g><circle cx="128" cy="10.5" fill="#f5c84c" r="8"/></g></g><g><g><path d="m227.5 58.5h-199c-3.859 0-7 3.141-7 7v157c0 3.859 3.141 7 7 7h199c3.859 0 7-3.141 7-7v-157c0-3.859-3.141-7-7-7z" fill="#5290db"/></g></g><g><g><path d="m64.351 111.546h-18.702c-2.296 0-4.157 1.861-4.157 4.157v18.702c0 2.296 1.861 4.157 4.157 4.157h18.702c2.296 0 4.157-1.861 4.157-4.157v-18.702c0-2.296-1.861-4.157-4.157-4.157z" fill="#edf4fc"/></g></g><g><g><path d="m66.906 75.541h-23.812c-1.846 0-3.342 1.496-3.342 3.342v4.811c0 1.846 1.496 3.342 3.342 3.342h23.811c1.846 0 3.342-1.496 3.342-3.342v-4.811c0-1.846-1.496-3.342-3.341-3.342z" fill="#edf4fc"/></g></g><g><g><path d="m64.351 148.495h-18.702c-2.296 0-4.157 1.861-4.157 4.157v18.702c0 2.296 1.861 4.157 4.157 4.157h18.702c2.296 0 4.157-1.861 4.157-4.157v-18.702c0-2.296-1.861-4.157-4.157-4.157z" fill="#f5c84c"/></g></g><g><g><path d="m64.351 185.443h-18.702c-2.296 0-4.157 1.861-4.157 4.157v18.702c0 2.296 1.861 4.157 4.157 4.157h18.702c2.296 0 4.157-1.861 4.157-4.157v-18.702c0-2.296-1.861-4.157-4.157-4.157z" fill="#70d6f9"/></g></g><g><g><path d="m113.018 111.546h-18.702c-2.296 0-4.157 1.861-4.157 4.157v18.702c0 2.296 1.861 4.157 4.157 4.157h18.702c2.296 0 4.157-1.861 4.157-4.157v-18.702c0-2.296-1.862-4.157-4.157-4.157z" fill="#f5c84c"/></g></g><g><g><path d="m115.572 75.541h-23.811c-1.846 0-3.342 1.496-3.342 3.342v4.811c0 1.846 1.496 3.342 3.342 3.342h23.811c1.845 0 3.342-1.496 3.342-3.342v-4.811c0-1.846-1.496-3.342-3.342-3.342z" fill="#edf4fc"/></g></g><g><g><path d="m113.018 148.495h-18.702c-2.296 0-4.157 1.861-4.157 4.157v18.702c0 2.296 1.861 4.157 4.157 4.157h18.702c2.296 0 4.157-1.861 4.157-4.157v-18.702c0-2.296-1.862-4.157-4.157-4.157z" fill="#edf4fc"/></g></g><g><g><path d="m161.684 111.546h-18.702c-2.296 0-4.157 1.861-4.157 4.157v18.702c0 2.296 1.861 4.157 4.157 4.157h18.702c2.296 0 4.157-1.861 4.157-4.157v-18.702c0-2.296-1.861-4.157-4.157-4.157z" fill="#70d6f9"/></g></g><g><g><path d="m164.239 75.541h-23.811c-1.845 0-3.342 1.496-3.342 3.342v4.811c0 1.846 1.496 3.342 3.342 3.342h23.811c1.846 0 3.342-1.496 3.342-3.342v-4.811c0-1.846-1.497-3.342-3.342-3.342z" fill="#edf4fc"/></g></g><g><g><path d="m210.351 111.546h-18.702c-2.296 0-4.157 1.861-4.157 4.157v18.702c0 2.296 1.861 4.157 4.157 4.157h18.702c2.296 0 4.157-1.861 4.157-4.157v-18.702c0-2.296-1.861-4.157-4.157-4.157z" fill="#edf4fc"/></g></g><g><g><path d="m212.906 75.541h-23.811c-1.846 0-3.342 1.496-3.342 3.342v4.811c0 1.846 1.496 3.342 3.342 3.342h23.811c1.846 0 3.342-1.496 3.342-3.342v-4.811c-.001-1.846-1.497-3.342-3.342-3.342z" fill="#edf4fc"/></g></g><g><g><path d="m210.351 148.495h-18.702c-2.296 0-4.157 1.861-4.157 4.157v18.702c0 2.296 1.861 4.157 4.157 4.157h18.702c2.296 0 4.157-1.861 4.157-4.157v-18.702c0-2.296-1.861-4.157-4.157-4.157z" fill="#f5c84c"/></g></g><g><g><path d="m210.351 185.443h-18.702c-2.296 0-4.157 1.861-4.157 4.157v18.702c0 2.296 1.861 4.157 4.157 4.157h18.702c2.296 0 4.157-1.861 4.157-4.157v-18.702c0-2.296-1.861-4.157-4.157-4.157z" fill="#70d6f9"/></g></g><g><g><path d="m149.61 32.21c-3.157-.561-5.613-3.017-6.245-6.104 0-.14-.281-.14-.281 0-.632 3.087-3.087 5.543-6.245 6.104-.14 0-.14.21 0 .281 3.157.562 5.613 3.017 6.245 6.104 0 .14.281.14.281 0 .631-3.087 3.087-5.543 6.245-6.104.14-.071.14-.281 0-.281z" fill="#b2e26d"/></g></g><g><g><path d="m39.8 22.85c-4.5-.8-8-4.3-8.9-8.7 0-.2-.4-.2-.4 0-.9 4.4-4.4 7.9-8.9 8.7-.2 0-.2.3 0 .4 4.5.8 8 4.3 8.9 8.7 0 .2.4.2.4 0 .9-4.4 4.4-7.9 8.9-8.7.2-.1.2-.4 0-.4z" fill="#f5c84c"/></g></g><g><g><path d="m3.4 41c-1.878 0-3.4 1.522-3.4 3.4s1.522 3.4 3.4 3.4 3.4-1.522 3.4-3.4-1.522-3.4-3.4-3.4z" fill="#fc657e"/></g></g><g><g><path d="m206.7 17.1h-2.3v-2.3c0-1.7-1.4-3.2-3.2-3.2s-3.2 1.4-3.2 3.2v2.3h-2.3c-1.7 0-3.2 1.4-3.2 3.2s1.4 3.2 3.2 3.2h2.3v2.3c0 1.7 1.4 3.2 3.2 3.2s3.2-1.4 3.2-3.2v-2.3h2.3c1.7 0 3.2-1.4 3.2-3.2s-1.4-3.2-3.2-3.2z" fill="#70d6f9"/></g></g><g><g><path d="m192.8 249.2c-1.878 0-3.4 1.522-3.4 3.4s1.522 3.4 3.4 3.4 3.4-1.522 3.4-3.4-1.522-3.4-3.4-3.4z" fill="#f5c84c"/></g></g><g><g><g><path d="m215.927 46.13-78.995-40.126c-1.228-.625-2.736-.134-3.36 1.097-.626 1.23-.135 2.735 1.097 3.36l78.995 40.126c.362.185.749.272 1.13.272.911 0 1.79-.501 2.23-1.369.625-1.23.134-2.735-1.097-3.36z"/></g></g><g><g><path d="m122.427 7.101c-.624-1.23-2.131-1.722-3.36-1.097l-79.099 40.18c-1.231.625-1.723 2.13-1.097 3.36.44.868 1.319 1.369 2.23 1.369.381 0 .768-.088 1.13-.272l79.099-40.18c1.232-.625 1.723-2.13 1.097-3.36z"/></g></g></g><g><g><path d="m216 96.331h-175c-1.381 0-2.5 1.119-2.5 2.5s1.119 2.5 2.5 2.5h175c1.381 0 2.5-1.119 2.5-2.5s-1.119-2.5-2.5-2.5z"/></g></g><g><g><g><g><path d="m227.5 46h-199c-10.752 0-19.5 8.748-19.5 19.5v157c0 10.752 8.748 19.5 19.5 19.5h199c10.752 0 19.5-8.748 19.5-19.5v-157c0-10.752-8.748-19.5-19.5-19.5zm14.5 176.5c0 7.995-6.505 14.5-14.5 14.5h-199c-7.995 0-14.5-6.505-14.5-14.5v-157c0-7.995 6.505-14.5 14.5-14.5h199c7.995 0 14.5 6.505 14.5 14.5z"/></g></g></g></g><g><g><g><path d="m128 0c-5.79 0-10.5 4.71-10.5 10.5s4.71 10.5 10.5 10.5 10.5-4.71 10.5-10.5-4.71-10.5-10.5-10.5zm0 16c-3.032 0-5.5-2.468-5.5-5.5s2.468-5.5 5.5-5.5 5.5 2.468 5.5 5.5-2.468 5.5-5.5 5.5z"/></g></g></g><g><g><g><path d="m227.5 56h-199c-5.238 0-9.5 4.262-9.5 9.5v157c0 5.238 4.262 9.5 9.5 9.5h199c5.238 0 9.5-4.262 9.5-9.5v-157c0-5.238-4.262-9.5-9.5-9.5zm4.5 166.5c0 2.481-2.019 4.5-4.5 4.5h-199c-2.481 0-4.5-2.019-4.5-4.5v-157c0-2.481 2.019-4.5 4.5-4.5h199c2.481 0 4.5 2.019 4.5 4.5z"/></g></g></g><g><g><g><path d="m64.351 109.046h-18.702c-3.671 0-6.657 2.986-6.657 6.657v18.702c0 3.671 2.986 6.657 6.657 6.657h18.701c3.671 0 6.657-2.986 6.657-6.657v-18.702c.001-3.671-2.986-6.657-6.656-6.657zm1.657 25.359c0 .914-.743 1.657-1.657 1.657h-18.702c-.914 0-1.657-.743-1.657-1.657v-18.702c0-.914.743-1.657 1.657-1.657h18.701c.914 0 1.657.743 1.657 1.657v18.702z"/></g></g></g><g><g><g><path d="m66.905 73.041h-23.81c-3.221 0-5.842 2.621-5.842 5.842v4.812c0 3.221 2.621 5.841 5.842 5.841h23.811c3.221 0 5.842-2.62 5.842-5.841v-4.812c-.001-3.221-2.622-5.842-5.843-5.842zm.842 10.653c0 .464-.378.841-.842.841h-23.81c-.464 0-.842-.377-.842-.841v-4.812c0-.464.378-.842.842-.842h23.811c.464 0 .842.378.842.842v4.812z"/></g></g></g><g><g><g><path d="m64.351 145.994h-18.702c-3.671 0-6.657 2.986-6.657 6.657v18.702c0 3.671 2.986 6.657 6.657 6.657h18.701c3.671 0 6.657-2.986 6.657-6.657v-18.702c.001-3.671-2.986-6.657-6.656-6.657zm1.657 25.36c0 .914-.743 1.657-1.657 1.657h-18.702c-.914 0-1.657-.743-1.657-1.657v-18.702c0-.914.743-1.657 1.657-1.657h18.701c.914 0 1.657.743 1.657 1.657v18.702z"/></g></g></g><g><g><g><path d="m64.351 182.942h-18.702c-3.671 0-6.657 2.986-6.657 6.657v18.702c0 3.671 2.986 6.657 6.657 6.657h18.701c3.671 0 6.657-2.986 6.657-6.657v-18.701c.001-3.671-2.986-6.658-6.656-6.658zm1.657 25.36c0 .914-.743 1.657-1.657 1.657h-18.702c-.914 0-1.657-.743-1.657-1.657v-18.702c0-.914.743-1.657 1.657-1.657h18.701c.914 0 1.657.743 1.657 1.657v18.702z"/></g></g></g><g><g><g><path d="m113.018 109.046h-18.703c-3.671 0-6.657 2.986-6.657 6.657v18.702c0 3.671 2.986 6.657 6.657 6.657h18.702c3.671 0 6.657-2.986 6.657-6.657v-18.702c.001-3.671-2.986-6.657-6.656-6.657zm1.657 25.359c0 .914-.743 1.657-1.657 1.657h-18.703c-.914 0-1.657-.743-1.657-1.657v-18.702c0-.914.743-1.657 1.657-1.657h18.702c.914 0 1.657.743 1.657 1.657v18.702z"/></g></g></g><g><g><g><path d="m115.572 73.041h-23.811c-3.221 0-5.841 2.621-5.841 5.842v4.812c0 3.221 2.62 5.841 5.841 5.841h23.812c3.221 0 5.842-2.62 5.842-5.841v-4.812c-.001-3.221-2.622-5.842-5.843-5.842zm.842 10.653c0 .464-.378.841-.842.841h-23.811c-.464 0-.841-.377-.841-.841v-4.812c0-.464.377-.842.841-.842h23.812c.464 0 .842.378.842.842v4.812z"/></g></g></g><g><g><g><path d="m113.018 145.994h-18.703c-3.671 0-6.657 2.986-6.657 6.657v18.702c0 3.671 2.986 6.657 6.657 6.657h18.702c3.671 0 6.657-2.986 6.657-6.657v-18.702c.001-3.671-2.986-6.657-6.656-6.657zm1.657 25.36c0 .914-.743 1.657-1.657 1.657h-18.703c-.914 0-1.657-.743-1.657-1.657v-18.702c0-.914.743-1.657 1.657-1.657h18.702c.914 0 1.657.743 1.657 1.657v18.702z"/></g></g></g><g><g><g><path d="m161.685 109.046h-18.702c-3.671 0-6.657 2.986-6.657 6.657v18.702c0 3.671 2.986 6.657 6.657 6.657h18.702c3.671 0 6.657-2.986 6.657-6.657v-18.702c0-3.671-2.987-6.657-6.657-6.657zm1.657 25.359c0 .914-.743 1.657-1.657 1.657h-18.702c-.914 0-1.657-.743-1.657-1.657v-18.702c0-.914.743-1.657 1.657-1.657h18.702c.914 0 1.657.743 1.657 1.657z"/></g></g></g><g><g><g><path d="m164.239 73.041h-23.812c-3.221 0-5.842 2.621-5.842 5.842v4.812c0 3.221 2.621 5.841 5.842 5.841h23.812c3.221 0 5.841-2.62 5.841-5.841v-4.812c0-3.221-2.62-5.842-5.841-5.842zm.841 10.653c0 .464-.377.841-.841.841h-23.812c-.464 0-.842-.377-.842-.841v-4.812c0-.464.378-.842.842-.842h23.812c.464 0 .841.378.841.842z"/></g></g></g><g><g><g><path d="m210.351 109.046h-18.701c-3.671 0-6.657 2.986-6.657 6.657v18.702c0 3.671 2.986 6.657 6.657 6.657h18.701c3.671 0 6.657-2.986 6.657-6.657v-18.702c0-3.671-2.987-6.657-6.657-6.657zm1.657 25.359c0 .914-.743 1.657-1.657 1.657h-18.701c-.914 0-1.657-.743-1.657-1.657v-18.702c0-.914.743-1.657 1.657-1.657h18.701c.914 0 1.657.743 1.657 1.657z"/></g></g></g><g><g><g><path d="m212.905 73.041h-23.811c-3.221 0-5.842 2.621-5.842 5.842v4.812c0 3.221 2.621 5.841 5.842 5.841h23.811c3.221 0 5.842-2.62 5.842-5.841v-4.812c0-3.221-2.621-5.842-5.842-5.842zm.842 10.653c0 .464-.378.841-.842.841h-23.811c-.464 0-.842-.377-.842-.841v-4.812c0-.464.378-.842.842-.842h23.811c.464 0 .842.378.842.842z"/></g></g></g><g><g><g><path d="m210.351 145.994h-18.701c-3.671 0-6.657 2.986-6.657 6.657v18.702c0 3.671 2.986 6.657 6.657 6.657h18.701c3.671 0 6.657-2.986 6.657-6.657v-18.702c0-3.671-2.987-6.657-6.657-6.657zm1.657 25.36c0 .914-.743 1.657-1.657 1.657h-18.701c-.914 0-1.657-.743-1.657-1.657v-18.702c0-.914.743-1.657 1.657-1.657h18.701c.914 0 1.657.743 1.657 1.657z"/></g></g></g><g><g><g><path d="m210.351 182.942h-18.701c-3.671 0-6.657 2.986-6.657 6.657v18.702c0 3.671 2.986 6.657 6.657 6.657h18.701c3.671 0 6.657-2.986 6.657-6.657v-18.701c0-3.671-2.987-6.658-6.657-6.658zm1.657 25.36c0 .914-.743 1.657-1.657 1.657h-18.701c-.914 0-1.657-.743-1.657-1.657v-18.702c0-.914.743-1.657 1.657-1.657h18.701c.914 0 1.657.743 1.657 1.657z"/></g></g></g></g></g></svg>